<svg xmlns="http://www.w3.org/2000/svg" style="display:none" aria-hidden="true">
	<symbol id="sprout" viewBox="0 0 24 24">
		<path d="M7 20h10"/>
		<path d="M10 20c5.5-2.5.8-6.4 3-10"/>
		<path d="M9.5 9.4c1.1.8 1.8 2.2 2.3 3.7-2 .4-3.5.4-4.8-.3-1.2-.6-2.3-1.9-3-4.2 2.8-.5 4.4 0 5.5.8z"/>
		<path d="M14.1 6a7 7 0 0 0-1.1 4c1.9-.1 3.3-.6 4.3-1.4 1-1 1.6-2.3 1.7-4.6-2.7.1-4 1-4.9 2z"/>
	</symbol>
	<symbol id="menu" viewBox="0 0 24 24">
		<line x1="4" x2="20" y1="6" y2="6"/>
		<line x1="4" x2="20" y1="12" y2="12"/>
		<line x1="4" x2="20" y1="18" y2="18"/>
	</symbol>
	<symbol id="user" viewBox="0 0 24 24">
		<path d="M19 21v-2a4 4 0 0 0-4-4H9a4 4 0 0 0-4 4v2"/>
		<circle cx="12" cy="7" r="4"/>
	</symbol>
	<symbol id="check" viewBox="0 0 24 24">
		<polyline points="20 6 9 17 4 12"/>
	</symbol>
	<symbol id="message-circle" viewBox="0 0 24 24">
		<path d="M7.9 20A9 9 0 1 0 4 16.1L2 22Z"/>
	</symbol>
	<symbol id="map-pin" viewBox="0 0 24 24">
		<path d="M20 10c0 4.993-5.539 10.193-7.399 11.799a1 1 0 0 1-1.202 0C9.539 20.193 4 14.993 4 10a8 8 0 0 1 16 0"/>
		<circle cx="12" cy="10" r="3"/>
	</symbol>
	<symbol id="mail" viewBox="0 0 24 24">
		<rect width="20" height="16" x="2" y="4" rx="2"/>
		<path d="m22 7-8.97 5.7a1.94 1.94 0 0 1-2.06 0L2 7"/>
	</symbol>
	<symbol id="facebook" viewBox="0 0 24 24">
		<path d="M18 2h-3a5 5 0 0 0-5 5v3H7v4h3v8h4v-8h3l1-4h-4V7a1 1 0 0 1 1-1h3z"/>
	</symbol>
	<symbol id="instagram" viewBox="0 0 24 24">
		<rect width="20" height="20" x="2" y="2" rx="5" ry="5"/>
		<path d="M16 11.37A4 4 0 1 1 12.63 8 4 4 0 0 1 16 11.37z"/>
		<line x1="17.5" x2="17.51" y1="6.5" y2="6.5"/>
	</symbol>
	<symbol id="leaf" viewBox="0 0 24 24">
		<path d="M11 20A7 7 0 0 1 9.8 6.1C15.5 5 17 4.48 19.2 2.96a1 1 0 0 1 1.8.4 13.06 13.06 0 0 1 .5 6.79c-.3 1.74-1.3 3.84-3.5 6.34a14.55 14.55 0 0 1-6 4.55"/>
		<path d="M2 21c0-3 1.85-5.36 5.08-6"/>
	</symbol>
	<symbol id="users" viewBox="0 0 24 24">
		<path d="M16 21v-2a4 4 0 0 0-4-4H6a4 4 0 0 0-4 4v2"/>
		<circle cx="9" cy="7" r="4"/>
		<path d="M22 21v-2a4 4 0 0 0-3-3.87"/>
		<path d="M16 3.13a4 4 0 0 1 0 7.75"/>
	</symbol>
	<symbol id="calendar" viewBox="0 0 24 24">
		<path d="M8 2v4"/>
		<path d="M16 2v4"/>
		<rect width="18" height="18" x="3" y="4" rx="2"/>
		<path d="M3 10h18"/>
	</symbol>
</svg>
